<?xml version="1.0" encoding="UTF-8" standalone="no"?>
<!-- Created with Inkscape (http://www.inkscape.org/) -->

<svg
   xmlns:dc="http://purl.org/dc/elements/1.1/"
   xmlns:cc="http://creativecommons.org/ns#"
   xmlns:rdf="http://www.w3.org/1999/02/22-rdf-syntax-ns#"
   xmlns:svg="http://www.w3.org/2000/svg"
   xmlns="http://www.w3.org/2000/svg"
   xmlns:sodipodi="http://sodipodi.sourceforge.net/DTD/sodipodi-0.dtd"
   xmlns:inkscape="http://www.inkscape.org/namespaces/inkscape"
   version="1.1"
   id="svg933"
   xml:space="preserve"
   width="800"
   height="800"
   viewBox="0 0 800 800"
   sodipodi:docname="ghana-lion-flag-shape.svg"
   inkscape:version="0.92.4 (5da689c313, 2019-01-14)"><metadata
     id="metadata939"><rdf:RDF><cc:Work
         rdf:about=""><dc:format>image/svg+xml</dc:format><dc:type
           rdf:resource="http://purl.org/dc/dcmitype/StillImage" /><dc:title></dc:title></cc:Work></rdf:RDF></metadata><defs
     id="defs937"><clipPath
       clipPathUnits="userSpaceOnUse"
       id="clipPath949"><path
         d="M 0,600 H 600 V 0 H 0 Z"
         id="path947"
         inkscape:connector-curvature="0" /></clipPath></defs><sodipodi:namedview
     pagecolor="#ffffff"
     bordercolor="#666666"
     borderopacity="1"
     objecttolerance="10"
     gridtolerance="10"
     guidetolerance="10"
     inkscape:pageopacity="0"
     inkscape:pageshadow="2"
     inkscape:window-width="1920"
     inkscape:window-height="1018"
     id="namedview935"
     showgrid="false"
     inkscape:zoom="0.7176361"
     inkscape:cx="522.0339"
     inkscape:cy="330.50847"
     inkscape:window-x="-8"
     inkscape:window-y="-8"
     inkscape:window-maximized="1"
     inkscape:current-layer="g941" /><g
     id="g941"
     inkscape:groupmode="layer"
     inkscape:label="Ghana-flag-lion-publicdomainvectors.org"
     transform="matrix(1.3333333,0,0,-1.3333333,0,800)"><g
       id="g943"><g
         id="g945"
         clip-path="url(#clipPath949)"><path
           d="m 240.471,258.51 h -43.389 c -4.931,-8.541 -8.142,-18.624 -7.082,-31.692 2.954,-36.44 13.149,-75.086 -21.175,-63.521 -19.356,6.518 -33.151,5.773 -42.022,3.281 -14.347,6.651 -33.636,2.412 -37.257,-12.97 7.245,6.254 14.501,5.475 19.919,3.167 -16.177,-1.496 -29.981,-15.813 -23.329,-31.075 2.205,10.025 9.489,13.287 15.725,14.171 -5.5,-6.827 -3.938,-16.022 4.396,-25.799 -1.376,12.677 7.653,15.051 11.617,15.486 2.325,-1.433 5.02,-2.831 8.11,-4.179 12.559,-3.405 57.775,10.834 97.832,-3.405 2.463,6.402 -7.385,23.845 -13.296,28.771 2.46,15.264 8.534,36.683 30.203,43.08 11.915,3.52 20.36,19.253 27.321,32.456 13.502,-3.965 30.323,-9.426 46.583,-16.237 9.018,-3.782 17.84,-7.999 25.695,-12.624 7.853,-4.608 14.709,-9.72 19.5,-15.112 2.365,-2.704 4.183,-5.478 5.332,-8.156 1.159,-2.671 1.618,-5.228 1.631,-7.345 0.035,-0.534 0.012,-1.038 -0.042,-1.509 -0.047,-0.473 -0.058,-0.923 -0.127,-1.334 -0.17,-0.811 -0.264,-1.522 -0.43,-2.077 -0.341,-1.109 -0.519,-1.702 -0.519,-1.702 0,0 0.253,0.569 0.729,1.63 0.243,0.538 0.426,1.238 0.706,2.047 0.126,0.41 0.191,0.866 0.302,1.347 0.117,0.48 0.204,0.996 0.242,1.554 0.264,2.203 0.132,4.983 -0.75,8.006 -0.867,3.024 -2.441,6.254 -4.597,9.448 -4.363,6.376 -10.889,12.637 -18.409,18.439 -7.532,5.825 -16.06,11.309 -24.801,16.352 -14.776,8.51 -30.123,15.837 -42.905,21.485 2.413,3.37 4.721,5.358 7.053,5.035 79.151,-38.087 104.398,-65.055 86.668,-85.405 -9.316,-10.705 -28.728,5.634 -43.3,-1.652 -1.778,-0.89 -3.45,-1.799 -4.942,-2.833 -0.941,0.21 -23.341,5.026 -31.528,-10.233 3.926,1.832 9.737,1.538 15.393,-1.071 -5.838,-4.39 -11.695,-10.795 -10.8,-18.467 2.66,4.063 8.325,6.206 15.432,6.128 -4.259,-6.349 -9.754,-17.343 -3.392,-25.086 2.41,12.034 12.722,15.323 26.272,15.236 1.062,-0.86 2.168,-2.02 3.343,-3.598 32.27,-2.855 73.98,19.76 91.462,14.712 -1.725,19.693 -22.739,24.867 -23.391,26.834 4.626,17.736 0.953,41.833 -8.709,63.627 0.723,0.259 1.464,0.525 2.219,0.808 3.17,1.216 6.585,2.55 10.105,4.2 3.531,1.595 7.18,3.46 10.864,5.536 1.831,1.067 3.697,2.129 5.52,3.33 1.853,1.14 3.662,2.408 5.477,3.69 1.824,1.256 3.561,2.694 5.341,4.048 1.696,1.49 3.469,2.87 5.086,4.452 l 2.448,2.33 c 0.814,0.771 1.552,1.632 2.329,2.438 0.754,0.83 1.55,1.612 2.262,2.475 0.409,0.495 0.815,0.99 1.224,1.483 h -11.177 c -0.054,-0.041 -0.105,-0.087 -0.162,-0.128 l -2.484,-1.827 c -1.631,-1.244 -3.423,-2.288 -5.108,-3.433 -1.781,-1.021 -3.49,-2.113 -5.292,-3.039 -1.791,-0.945 -3.556,-1.881 -5.368,-2.696 -1.774,-0.873 -3.593,-1.613 -5.362,-2.366 -3.566,-1.446 -7.067,-2.708 -10.445,-3.737 -3.357,-1.078 -6.599,-1.889 -9.582,-2.616 -1.78,-0.416 -3.463,-0.771 -5.065,-1.081 -1.175,1.967 -2.407,3.893 -3.686,5.773 15.111,0.619 30.064,6.256 42.852,15.15 H 320.883 Z"
           style="fill:#15895c;fill-opacity:1;fill-rule:nonzero;stroke:none"
           id="path951"
           inkscape:connector-curvature="0" /><path
           d="m 183.769,243.289 c 0.109,5.191 1.703,10.309 4.141,15.221 h -3.97 c -1.33,-4.915 -1.608,-9.969 -0.171,-15.221"
           style="fill:#15895c;fill-opacity:1;fill-rule:nonzero;stroke:none"
           id="path953"
           inkscape:connector-curvature="0" /><path
           d="m 398.787,360.266 c 1.589,3.439 -0.514,10.792 -4.609,20.077 h -15.496 c 6.209,-3.997 13.106,-10.275 20.105,-20.077"
           style="fill:#f8cd1a;fill-opacity:1;fill-rule:nonzero;stroke:none"
           id="path955"
           inkscape:connector-curvature="0" /><path
           d="m 255.283,305.258 -40.396,28.788 h 49.518 l 14.668,46.297 H 151.107 c 8.439,-4.114 16.392,-9.232 24.454,-17.293 13.665,-10.972 62.207,-33.317 49.893,-65.323 -5.233,-13.612 -19.554,-23.943 -28.372,-39.217 h 43.389 z"
           style="fill:#f8cd1a;fill-opacity:1;fill-rule:nonzero;stroke:none"
           id="path957"
           inkscape:connector-curvature="0" /><path
           d="m 449.518,259.595 1.047,1.278 0.965,1.338 c 0.642,0.888 1.276,1.767 1.908,2.644 1.227,1.778 2.293,3.637 3.407,5.398 0.985,1.851 1.948,3.666 2.851,5.451 0.79,1.838 1.565,3.637 2.317,5.386 0.616,1.794 1.217,3.539 1.798,5.227 0.511,1.705 0.896,3.384 1.319,4.968 0.466,1.576 0.664,3.144 0.941,4.611 0.231,1.478 0.569,2.847 0.664,4.175 0.131,1.316 0.253,2.551 0.365,3.693 0.108,1.136 0.237,2.175 0.225,3.125 0.086,3.777 0.136,5.936 0.136,5.936 0,0 -0.32,-2.127 -0.881,-5.85 -0.108,-0.931 -0.369,-1.942 -0.619,-3.043 -0.252,-1.102 -0.521,-2.287 -0.813,-3.558 -0.256,-1.272 -0.762,-2.574 -1.165,-3.969 -0.448,-1.382 -0.829,-2.86 -1.47,-4.321 -0.608,-1.471 -1.169,-3.022 -1.867,-4.576 -0.75,-1.527 -1.527,-3.101 -2.328,-4.723 -0.914,-1.55 -1.851,-3.139 -2.813,-4.766 -1.074,-1.54 -2.172,-3.115 -3.29,-4.717 -1.252,-1.5 -2.437,-3.077 -3.771,-4.565 -0.682,-0.729 -1.366,-1.463 -2.054,-2.198 l -1.035,-1.105 -1.111,-1.045 c -0.741,-0.69 -1.484,-1.389 -2.226,-2.088 -0.741,-0.699 -1.568,-1.32 -2.347,-1.985 -0.745,-0.6 -1.458,-1.233 -2.228,-1.806 h 11.177 c 0.299,0.364 0.599,0.726 0.898,1.085"
           style="fill:#f8cd1a;fill-opacity:1;fill-rule:nonzero;stroke:none"
           id="path959"
           inkscape:connector-curvature="0" /><path
           d="M 280.209,287.494 240.471,258.51 h 80.412 z"
           style="fill:#f8cd1a;fill-opacity:1;fill-rule:nonzero;stroke:none"
           id="path961"
           inkscape:connector-curvature="0" /><path
           d="m 320.883,258.51 h 106.858 c 37.67,26.196 56.532,80.651 5.19,118.335 -1.571,1.153 -3.075,2.319 -4.514,3.498 h -21.221 c 1.883,-1.653 3.895,-3.263 6.044,-4.82 64.027,-46.396 19.053,-104.144 -38.257,-104.074 8.328,8.871 20.957,22.388 25.122,27.194 -25.734,4.288 -48.695,15.866 -65.649,28.42 L 305.03,305.6 Z"
           style="fill:#f8cd1a;fill-opacity:1;fill-rule:nonzero;stroke:none"
           id="path963"
           inkscape:connector-curvature="0" /><path
           d="m 183.94,258.51 h 3.97 c 7.924,15.958 24.886,29.743 29.859,36.792 3.692,5.237 4.675,10.164 4.127,14.596 0.348,-0.203 0.7,-0.389 1.051,-0.601 -0.165,2.095 -1.267,4.52 -3.022,7.14 -4.324,8.982 -13.751,14.71 -13.751,14.71 l -0.002,-10e-4 c -10.666,9.476 -23.69,18.749 -30.451,23.557 -18.71,-24.72 -53.068,5.785 -73.587,-8.787 -0.352,-0.251 -0.681,-0.515 -1.02,-0.774 -9.568,3.605 -29.241,2.942 -32.197,-15.971 1.095,2.122 9.451,7.979 13.086,0.473 -7.138,-5.276 -12.921,-15.437 -6.853,-28.542 -0.3,2.672 6.049,17.597 15.103,8.627 l 0.002,0.012 c 2.92,-5.846 8.603,-10.175 17.132,-11.098 -15.047,11.558 5.258,19.042 13.136,11.817 7.877,-7.223 19.697,4.592 19.697,4.592 0,0 32.35,14.046 67.147,1.647 5.533,-4.186 3.565,-9.678 -3.991,-23.275 -6.311,-11.354 -16.132,-22.7 -19.436,-34.914"
           style="fill:#f8cd1a;fill-opacity:1;fill-rule:nonzero;stroke:none"
           id="path965"
           inkscape:connector-curvature="0" /><path
           d="m 295.453,334.046 h 30.28 c -11.797,10.237 -19.306,20.353 -20.827,27.04 4.057,-5.148 17.365,-16.568 34.506,-27.04 h 4.618 l -2.086,-1.521 c 30.027,-17.774 70.56,-31.715 94.28,-5.321 -50.495,-6.675 -72.845,35.743 -79.923,53.139 h -76.432 z"
           style="fill:#f8cd1a;fill-opacity:1;fill-rule:nonzero;stroke:none"
           id="path967"
           inkscape:connector-curvature="0" /><path
           d="m 516.32,356.815 c -1.309,9.692 3.937,14.937 3.937,14.937 0,0 25.607,-16.075 24.295,-43.173 9.692,12.814 3.39,37.39 -1.615,51.764 h -41.765 c 2.661,-9.532 7.28,-19.877 15.148,-23.528"
           style="fill:#f8cd1a;fill-opacity:1;fill-rule:nonzero;stroke:none"
           id="path969"
           inkscape:connector-curvature="0" /><path
           d="m 367.521,509.225 c -4.676,17.973 -57.516,56.905 -96.994,35.892 0,0 -1.124,-20.26 -15.357,-22.85 5.58,6.738 7.586,18.636 4.631,19.95 -11.154,0 -27.281,-16.002 -33.631,-28.153 l -17.939,-2.294 -14.947,-15.436 c 0,0 -25.598,-0.498 -26.912,-10.5 -1.126,-8.571 11.477,-25.349 15.11,-29.976 0,0 4.761,-6.828 11.027,-8.636 -4.266,6.24 -3.253,8.896 -0.793,11.355 3.466,-2.183 6.393,-1.298 6.393,-1.298 0,0 6.077,2.727 10.635,4.676 l -1.669,-14.202 c -7.142,-1.998 -11.852,0.869 -11.852,0.869 l 2.658,-6.122 c 1.475,-7.385 9.353,-20.683 11.82,-20.683 2.46,0 15.753,9.847 19.201,7.387 3.451,-2.463 53.675,-15.602 45.144,17.229 10.009,-11.812 13.457,-36.762 -43.666,-27.241 -1.534,0.257 -6.963,-15.801 -8.486,-15.816 -21.389,9.246 -42.035,1.917 -56.136,5.354 -33.556,8.183 -43.75,23.438 -50.277,29.498 -3.133,2.917 -11.802,4.211 -20.924,2.859 -8.903,5.918 -25.962,9.65 -35.031,-5.138 1.398,1.175 10.249,0.727 14.979,-3.631 -0.13,-0.122 -0.247,-0.253 -0.375,-0.375 -10.853,0.041 -22.737,-4.358 -24.716,-17.019 0.97,1.88 10.986,5.837 16.44,1.321 -2.626,-5.606 -4.423,-12.914 1.647,-22.742 1.725,13.79 15.148,16.988 42.233,4.184 16.001,-7.563 29.194,-11.406 41.373,-17.344 h 127.966 l 0.386,1.218 0.41,-1.218 h 76.432 c -1.205,2.961 -1.972,5.203 -2.354,6.347 0,0 10.573,2.773 24.735,-6.347 h 15.496 c -13.092,29.677 -46.61,79.142 -45.605,84.149 1.314,6.569 31.51,3.586 39.134,-14.729 -1.309,40.055 -35.068,47.135 -59.828,61.184 -12.885,7.308 18.715,8.532 39.642,-1.722"
           style="fill:#cb2943;fill-opacity:1;fill-rule:nonzero;stroke:none"
           id="path971"
           inkscape:connector-curvature="0" /><path
           d="m 493.329,419.402 c -9.966,-8.541 -7.88,-28.113 -2.944,-31.069 -0.203,8.655 7.392,10.675 7.392,10.675 0,0 0.672,-8.907 3.395,-18.665 h 41.765 c -2.344,6.732 -4.405,11.23 -4.405,11.23 0,0 5.03,-0.947 13.896,-7.672 -8.04,27.415 -28.561,27.078 -34.473,27.737 -2.3,0.984 6.525,5.703 12.436,5.379 -7.215,5.906 -16.04,10.55 -30.162,7.755 -84.881,97.912 -150.665,6.187 -93.033,-44.429 h 21.221 c -60.572,49.611 -6.276,120.507 64.912,39.059"
           style="fill:#cb2943;fill-opacity:1;fill-rule:nonzero;stroke:none"
           id="path973"
           inkscape:connector-curvature="0" /><path
           d="m 339.412,334.046 c 0.836,-0.509 1.68,-1.016 2.532,-1.521 l 2.086,1.521 z"
           style="fill:#231f20;fill-opacity:1;fill-rule:nonzero;stroke:none"
           id="path975"
           inkscape:connector-curvature="0" /><path
           d="m 279.869,380.343 -0.41,1.218 -0.386,-1.218 -14.668,-46.297 h -49.518 l 40.396,-28.788 -14.812,-46.748 39.738,28.984 40.674,-28.984 -15.853,47.09 29.426,21.463 c -3.116,2.308 -6.032,4.648 -8.723,6.983 h -30.28 z"
           style="fill:#231f20;fill-opacity:1;fill-rule:nonzero;stroke:none"
           id="path977"
           inkscape:connector-curvature="0" /></g></g></g></svg>